<svg width="20" height="20" viewBox="0 0 20 20" fill="none" xmlns="http://www.w3.org/2000/svg">
<path d="M13.75 6.25C13.75 7.24456 13.3549 8.19839 12.6517 8.90165C11.9484 9.60491 10.9946 10 10 10C9.00544 10 8.05161 9.60491 7.34835 8.90165C6.64509 8.19839 6.25 7.24456 6.25 6.25C6.25 5.25544 6.64509 4.30161 7.34835 3.59835C8.05161 2.89509 9.00544 2.5 10 2.5C10.9946 2.5 11.9484 2.89509 12.6517 3.59835C13.3549 4.30161 13.75 5.25544 13.75 6.25ZM10 8.75C10.663 8.75 11.2989 8.48661 11.7678 8.01777C12.2366 7.54893 12.5 6.91304 12.5 6.25C12.5 5.58696 12.2366 4.95107 11.7678 4.48223C11.2989 4.01339 10.663 3.75 10 3.75C9.33696 3.75 8.70107 4.01339 8.23223 4.48223C7.76339 4.95107 7.5 5.58696 7.5 6.25C7.5 6.91304 7.76339 7.54893 8.23223 8.01777C8.70107 8.48661 9.33696 8.75 10 8.75ZM10.32 17.5C10.1769 17.094 10.0808 16.6729 10.0338 16.245H3.75C3.75125 15.9375 3.9425 15.0125 4.79 14.165C5.605 13.35 7.13875 12.5 10 12.5C10.325 12.5 10.6333 12.5104 10.925 12.5312C11.2075 12.105 11.545 11.7188 11.93 11.3838C11.3467 11.2963 10.7033 11.2517 10 11.25C3.75 11.25 2.5 15 2.5 16.25C2.5 17.5 3.75 17.5 3.75 17.5H10.32Z" fill="#FF4141"/>
<path d="M20 15.625C20 16.7853 19.5391 17.8981 18.7186 18.7186C17.8981 19.5391 16.7853 20 15.625 20C14.4647 20 13.3519 19.5391 12.5314 18.7186C11.7109 17.8981 11.25 16.7853 11.25 15.625C11.25 14.4647 11.7109 13.3519 12.5314 12.5314C13.3519 11.7109 14.4647 11.25 15.625 11.25C16.7853 11.25 17.8981 11.7109 18.7186 12.5314C19.5391 13.3519 20 14.4647 20 15.625ZM15.625 13.125C15.4592 13.125 15.3003 13.1908 15.1831 13.3081C15.0658 13.4253 15 13.5842 15 13.75V15.625C15 15.7908 15.0658 15.9497 15.1831 16.0669C15.3003 16.1842 15.4592 16.25 15.625 16.25C15.7908 16.25 15.9497 16.1842 16.0669 16.0669C16.1842 15.9497 16.25 15.7908 16.25 15.625V13.75C16.25 13.5842 16.1842 13.4253 16.0669 13.3081C15.9497 13.1908 15.7908 13.125 15.625 13.125ZM15.625 18.125C15.7908 18.125 15.9497 18.0592 16.0669 17.9419C16.1842 17.8247 16.25 17.6658 16.25 17.5C16.25 17.3342 16.1842 17.1753 16.0669 17.0581C15.9497 16.9408 15.7908 16.875 15.625 16.875C15.4592 16.875 15.3003 16.9408 15.1831 17.0581C15.0658 17.1753 15 17.3342 15 17.5C15 17.6658 15.0658 17.8247 15.1831 17.9419C15.3003 18.0592 15.4592 18.125 15.625 18.125Z" fill="#FF4141"/>
</svg>
