<svg width="18" height="18" viewBox="0 0 18 18" fill="none" xmlns="http://www.w3.org/2000/svg">
<path d="M13.625 18C14.7853 18 15.8981 17.5391 16.7186 16.7186C17.5391 15.8981 18 14.7853 18 13.625C18 12.4647 17.5391 11.3519 16.7186 10.5314C15.8981 9.71094 14.7853 9.25 13.625 9.25C12.4647 9.25 11.3519 9.71094 10.5314 10.5314C9.71094 11.3519 9.25 12.4647 9.25 13.625C9.25 14.7853 9.71094 15.8981 10.5314 16.7186C11.3519 17.5391 12.4647 18 13.625 18ZM15.7238 12.3837L14.055 15.1663C13.9817 15.2885 13.8814 15.3924 13.7619 15.4701C13.6424 15.5478 13.5067 15.5972 13.3652 15.6145C13.2237 15.6319 13.0801 15.6167 12.9454 15.5702C12.8106 15.5238 12.6882 15.4471 12.5875 15.3462L11.62 14.38C11.5026 14.2626 11.4367 14.1035 11.4367 13.9375C11.4367 13.7715 11.5026 13.6124 11.62 13.495C11.7374 13.3776 11.8965 13.3117 12.0625 13.3117C12.2285 13.3117 12.3876 13.3776 12.505 13.495L13.1888 14.18L14.6512 11.7413C14.6934 11.6708 14.7491 11.6094 14.815 11.5605C14.8809 11.5116 14.9558 11.4761 15.0355 11.4562C15.1151 11.4362 15.1979 11.4321 15.2791 11.4441C15.3603 11.4562 15.4383 11.4841 15.5087 11.5262C15.5792 11.5684 15.6406 11.6241 15.6895 11.69C15.7384 11.7559 15.7739 11.8308 15.7938 11.9105C15.8138 11.9901 15.8179 12.0729 15.8059 12.1541C15.7938 12.2353 15.7659 12.3133 15.7238 12.3837ZM11.75 4.25C11.75 5.24456 11.3549 6.19839 10.6517 6.90165C9.94839 7.60491 8.99456 8 8 8C7.00544 8 6.05161 7.60491 5.34835 6.90165C4.64509 6.19839 4.25 5.24456 4.25 4.25C4.25 3.25544 4.64509 2.30161 5.34835 1.59835C6.05161 0.895088 7.00544 0.5 8 0.5C8.99456 0.5 9.94839 0.895088 10.6517 1.59835C11.3549 2.30161 11.75 3.25544 11.75 4.25ZM8 6.75C8.66304 6.75 9.29893 6.48661 9.76777 6.01777C10.2366 5.54893 10.5 4.91304 10.5 4.25C10.5 3.58696 10.2366 2.95107 9.76777 2.48223C9.29893 2.01339 8.66304 1.75 8 1.75C7.33696 1.75 6.70107 2.01339 6.23223 2.48223C5.76339 2.95107 5.5 3.58696 5.5 4.25C5.5 4.91304 5.76339 5.54893 6.23223 6.01777C6.70107 6.48661 7.33696 6.75 8 6.75Z" fill="#22C55D"/>
<path d="M8.32 15.5C8.17687 15.094 8.08083 14.6729 8.03375 14.245H1.75C1.75125 13.9375 1.9425 13.0125 2.79 12.165C3.605 11.35 5.13875 10.5 8 10.5C8.325 10.5 8.63333 10.5104 8.925 10.5312C9.2075 10.105 9.545 9.71875 9.93 9.38375C9.34667 9.29625 8.70333 9.25167 8 9.25C1.75 9.25 0.5 13 0.5 14.25C0.5 15.5 1.75 15.5 1.75 15.5H8.32Z" fill="#22C55D"/>
</svg>
